<mxfile host="app.diagrams.net" modified="2024-04-18T17:24:10.003Z" agent="Mozilla/5.0 (Macintosh; Intel Mac OS X 10_15_7) AppleWebKit/605.1.15 (KHTML, like Gecko) Version/17.3 Safari/605.1.15" etag="uzStRjYI-ZeAtVozqir0" version="24.2.5" type="github">
  <diagram id="23iRSUPoRavnBvh4doch" name="Page-1">
    <mxGraphModel dx="954" dy="647" grid="1" gridSize="10" guides="1" tooltips="1" connect="1" arrows="1" fold="1" page="1" pageScale="1" pageWidth="827" pageHeight="1169" math="0" shadow="0">
      <root>
        <mxCell id="0" />
        <mxCell id="1" parent="0" />
        <mxCell id="7JuH_4QJl-1phAhiYr7i-1" value="" style="image;aspect=fixed;html=1;points=[];align=center;fontSize=12;image=img/lib/azure2/networking/DNS_Zones.svg;" vertex="1" parent="1">
          <mxGeometry x="20" y="60" width="64" height="64" as="geometry" />
        </mxCell>
        <mxCell id="7JuH_4QJl-1phAhiYr7i-7" value="" style="edgeStyle=orthogonalEdgeStyle;rounded=0;orthogonalLoop=1;jettySize=auto;html=1;" edge="1" parent="1" source="7JuH_4QJl-1phAhiYr7i-2" target="7JuH_4QJl-1phAhiYr7i-5">
          <mxGeometry relative="1" as="geometry">
            <mxPoint x="535" y="85" as="targetPoint" />
          </mxGeometry>
        </mxCell>
        <mxCell id="7JuH_4QJl-1phAhiYr7i-9" value="" style="edgeStyle=orthogonalEdgeStyle;rounded=0;orthogonalLoop=1;jettySize=auto;html=1;" edge="1" parent="1" source="7JuH_4QJl-1phAhiYr7i-2" target="7JuH_4QJl-1phAhiYr7i-8">
          <mxGeometry relative="1" as="geometry" />
        </mxCell>
        <mxCell id="7JuH_4QJl-1phAhiYr7i-12" value="" style="edgeStyle=orthogonalEdgeStyle;rounded=0;orthogonalLoop=1;jettySize=auto;html=1;entryX=0.6;entryY=0.85;entryDx=0;entryDy=0;entryPerimeter=0;" edge="1" parent="1" source="7JuH_4QJl-1phAhiYr7i-3" target="7JuH_4QJl-1phAhiYr7i-11">
          <mxGeometry relative="1" as="geometry">
            <Array as="points">
              <mxPoint x="281" y="180" />
              <mxPoint x="305" y="180" />
            </Array>
          </mxGeometry>
        </mxCell>
        <mxCell id="7JuH_4QJl-1phAhiYr7i-2" value="&lt;span style=&quot;white-space: pre;&quot;&gt;&#x9;&lt;/span&gt;&lt;span style=&quot;white-space: pre;&quot;&gt;&#x9;&lt;/span&gt;&lt;span style=&quot;white-space: pre;&quot;&gt;&#x9;&lt;/span&gt;&lt;span style=&quot;white-space: pre;&quot;&gt;&#x9;&lt;/span&gt;&lt;span style=&quot;white-space: pre;&quot;&gt;&#x9;User&lt;/span&gt;" style="rounded=0;whiteSpace=wrap;html=1;" vertex="1" parent="1">
          <mxGeometry x="210" y="40" width="260" height="90" as="geometry" />
        </mxCell>
        <mxCell id="7JuH_4QJl-1phAhiYr7i-3" value="" style="shape=mxgraph.cisco.computers_and_peripherals.web_browser;html=1;pointerEvents=1;dashed=0;fillColor=#036897;strokeColor=#ffffff;strokeWidth=2;verticalLabelPosition=bottom;verticalAlign=top;align=center;outlineConnect=0;" vertex="1" parent="1">
          <mxGeometry x="250" y="50" width="62" height="64" as="geometry" />
        </mxCell>
        <mxCell id="7JuH_4QJl-1phAhiYr7i-13" style="edgeStyle=orthogonalEdgeStyle;rounded=0;orthogonalLoop=1;jettySize=auto;html=1;" edge="1" parent="1" source="7JuH_4QJl-1phAhiYr7i-4">
          <mxGeometry relative="1" as="geometry">
            <mxPoint x="340" y="270" as="targetPoint" />
          </mxGeometry>
        </mxCell>
        <mxCell id="7JuH_4QJl-1phAhiYr7i-4" value="" style="html=1;verticalLabelPosition=bottom;align=center;labelBackgroundColor=#ffffff;verticalAlign=top;strokeWidth=2;strokeColor=#0080F0;shadow=0;dashed=0;shape=mxgraph.ios7.icons.smartphone;" vertex="1" parent="1">
          <mxGeometry x="340" y="50" width="30" height="60" as="geometry" />
        </mxCell>
        <mxCell id="7JuH_4QJl-1phAhiYr7i-5" value="" style="image;aspect=fixed;html=1;points=[];align=center;fontSize=12;image=img/lib/azure2/app_services/CDN_Profiles.svg;" vertex="1" parent="1">
          <mxGeometry x="590" y="65" width="68" height="40" as="geometry" />
        </mxCell>
        <mxCell id="7JuH_4QJl-1phAhiYr7i-8" value="" style="shape=waypoint;sketch=0;size=6;pointerEvents=1;points=[];fillColor=default;resizable=0;rotatable=0;perimeter=centerPerimeter;snapToPoint=1;rounded=0;" vertex="1" parent="1">
          <mxGeometry x="70" y="75" width="20" height="20" as="geometry" />
        </mxCell>
        <mxCell id="7JuH_4QJl-1phAhiYr7i-10" value="" style="verticalLabelPosition=bottom;html=1;verticalAlign=top;align=center;strokeColor=none;fillColor=#00BEF2;shape=mxgraph.azure.load_balancer_generic;pointerEvents=1;" vertex="1" parent="1">
          <mxGeometry x="302.5" y="265" width="37.5" height="50" as="geometry" />
        </mxCell>
        <mxCell id="7JuH_4QJl-1phAhiYr7i-11" value="" style="shape=waypoint;sketch=0;size=6;pointerEvents=1;points=[];fillColor=default;resizable=0;rotatable=0;perimeter=centerPerimeter;snapToPoint=1;rounded=0;" vertex="1" parent="1">
          <mxGeometry x="295" y="245" width="20" height="20" as="geometry" />
        </mxCell>
        <mxCell id="7JuH_4QJl-1phAhiYr7i-14" value="" style="rounded=0;whiteSpace=wrap;html=1;" vertex="1" parent="1">
          <mxGeometry x="50" y="330" width="620" height="360" as="geometry" />
        </mxCell>
        <mxCell id="7JuH_4QJl-1phAhiYr7i-19" value="" style="edgeStyle=orthogonalEdgeStyle;rounded=0;orthogonalLoop=1;jettySize=auto;html=1;" edge="1" parent="1" source="7JuH_4QJl-1phAhiYr7i-34">
          <mxGeometry relative="1" as="geometry">
            <mxPoint x="128" y="386" as="sourcePoint" />
            <mxPoint x="510" y="386" as="targetPoint" />
            <Array as="points" />
          </mxGeometry>
        </mxCell>
        <mxCell id="7JuH_4QJl-1phAhiYr7i-15" value="" style="sketch=0;pointerEvents=1;shadow=0;dashed=0;html=1;strokeColor=none;fillColor=#505050;labelPosition=center;verticalLabelPosition=bottom;verticalAlign=top;outlineConnect=0;align=center;shape=mxgraph.office.servers.web_server;" vertex="1" parent="1">
          <mxGeometry x="90" y="358" width="48" height="57" as="geometry" />
        </mxCell>
        <mxCell id="7JuH_4QJl-1phAhiYr7i-42" value="" style="edgeStyle=orthogonalEdgeStyle;rounded=0;orthogonalLoop=1;jettySize=auto;html=1;entryX=0.839;entryY=0.583;entryDx=0;entryDy=0;entryPerimeter=0;" edge="1" parent="1" source="7JuH_4QJl-1phAhiYr7i-17" target="7JuH_4QJl-1phAhiYr7i-14">
          <mxGeometry relative="1" as="geometry">
            <mxPoint x="568.3" y="471.5" as="targetPoint" />
            <Array as="points">
              <mxPoint x="568" y="424" />
              <mxPoint x="570" y="424" />
            </Array>
          </mxGeometry>
        </mxCell>
        <mxCell id="7JuH_4QJl-1phAhiYr7i-17" value="" style="sketch=0;aspect=fixed;pointerEvents=1;shadow=0;dashed=0;html=1;strokeColor=none;labelPosition=center;verticalLabelPosition=bottom;verticalAlign=top;align=center;fillColor=#00188D;shape=mxgraph.azure.queue_generic" vertex="1" parent="1">
          <mxGeometry x="510" y="369" width="116.67" height="35" as="geometry" />
        </mxCell>
        <mxCell id="7JuH_4QJl-1phAhiYr7i-18" value="" style="shape=waypoint;sketch=0;size=6;pointerEvents=1;points=[];fillColor=#505050;resizable=0;rotatable=0;perimeter=centerPerimeter;snapToPoint=1;verticalAlign=top;strokeColor=none;shadow=0;dashed=0;" vertex="1" parent="1">
          <mxGeometry x="510" y="376.5" width="20" height="20" as="geometry" />
        </mxCell>
        <mxCell id="7JuH_4QJl-1phAhiYr7i-23" value="Database Sharing" style="rounded=0;whiteSpace=wrap;html=1;" vertex="1" parent="1">
          <mxGeometry x="60" y="550" width="200" height="125" as="geometry" />
        </mxCell>
        <mxCell id="7JuH_4QJl-1phAhiYr7i-25" value="" style="image;aspect=fixed;perimeter=ellipsePerimeter;html=1;align=center;shadow=0;dashed=0;spacingTop=3;image=img/lib/active_directory/databases.svg;" vertex="1" parent="1">
          <mxGeometry x="80" y="550" width="50" height="49" as="geometry" />
        </mxCell>
        <mxCell id="7JuH_4QJl-1phAhiYr7i-26" value="" style="image;aspect=fixed;perimeter=ellipsePerimeter;html=1;align=center;shadow=0;dashed=0;spacingTop=3;image=img/lib/active_directory/databases.svg;" vertex="1" parent="1">
          <mxGeometry x="138" y="550" width="50" height="49" as="geometry" />
        </mxCell>
        <mxCell id="7JuH_4QJl-1phAhiYr7i-27" value="" style="image;aspect=fixed;perimeter=ellipsePerimeter;html=1;align=center;shadow=0;dashed=0;spacingTop=3;image=img/lib/active_directory/databases.svg;" vertex="1" parent="1">
          <mxGeometry x="200" y="550" width="50" height="49" as="geometry" />
        </mxCell>
        <mxCell id="7JuH_4QJl-1phAhiYr7i-29" value="" style="outlineConnect=0;dashed=0;verticalLabelPosition=bottom;verticalAlign=top;align=center;html=1;shape=mxgraph.aws3.cache_node;fillColor=#2E73B8;gradientColor=none;" vertex="1" parent="1">
          <mxGeometry x="295" y="550" width="60" height="63" as="geometry" />
        </mxCell>
        <mxCell id="7JuH_4QJl-1phAhiYr7i-32" value="" style="outlineConnect=0;dashed=0;verticalLabelPosition=bottom;verticalAlign=top;align=center;html=1;shape=mxgraph.aws3.cache_node;fillColor=#2E73B8;gradientColor=none;" vertex="1" parent="1">
          <mxGeometry x="355" y="550" width="60" height="63" as="geometry" />
        </mxCell>
        <mxCell id="7JuH_4QJl-1phAhiYr7i-33" value="workers" style="outlineConnect=0;dashed=0;verticalLabelPosition=bottom;verticalAlign=top;align=center;html=1;shape=mxgraph.aws3.users;fillColor=#ACACAC;gradientColor=none;" vertex="1" parent="1">
          <mxGeometry x="487" y="536" width="66" height="63" as="geometry" />
        </mxCell>
        <mxCell id="7JuH_4QJl-1phAhiYr7i-35" value="" style="edgeStyle=orthogonalEdgeStyle;rounded=0;orthogonalLoop=1;jettySize=auto;html=1;" edge="1" parent="1" target="7JuH_4QJl-1phAhiYr7i-34">
          <mxGeometry relative="1" as="geometry">
            <mxPoint x="128" y="386" as="sourcePoint" />
            <mxPoint x="510" y="386" as="targetPoint" />
            <Array as="points" />
          </mxGeometry>
        </mxCell>
        <mxCell id="7JuH_4QJl-1phAhiYr7i-46" value="Web Server" style="edgeLabel;html=1;align=center;verticalAlign=middle;resizable=0;points=[];" vertex="1" connectable="0" parent="7JuH_4QJl-1phAhiYr7i-35">
          <mxGeometry x="-0.8293" y="1" relative="1" as="geometry">
            <mxPoint x="4" y="55" as="offset" />
          </mxGeometry>
        </mxCell>
        <mxCell id="7JuH_4QJl-1phAhiYr7i-34" value="" style="sketch=0;pointerEvents=1;shadow=0;dashed=0;html=1;strokeColor=none;fillColor=#505050;labelPosition=center;verticalLabelPosition=bottom;verticalAlign=top;outlineConnect=0;align=center;shape=mxgraph.office.servers.web_server;" vertex="1" parent="1">
          <mxGeometry x="140" y="358" width="48" height="57" as="geometry" />
        </mxCell>
        <mxCell id="7JuH_4QJl-1phAhiYr7i-38" value="" style="outlineConnect=0;dashed=0;verticalLabelPosition=bottom;verticalAlign=top;align=center;html=1;shape=mxgraph.aws3.users;fillColor=#ACACAC;gradientColor=none;" vertex="1" parent="1">
          <mxGeometry x="560.67" y="543" width="66" height="63" as="geometry" />
        </mxCell>
        <mxCell id="7JuH_4QJl-1phAhiYr7i-43" value="" style="dashed=0;outlineConnect=0;html=1;align=center;labelPosition=center;verticalLabelPosition=bottom;verticalAlign=top;shape=mxgraph.webicons.mongodb;gradientColor=#DFDEDE" vertex="1" parent="1">
          <mxGeometry x="720" y="480" width="102.4" height="102.4" as="geometry" />
        </mxCell>
        <mxCell id="7JuH_4QJl-1phAhiYr7i-45" value="" style="endArrow=classic;html=1;rounded=0;" edge="1" parent="1" source="7JuH_4QJl-1phAhiYr7i-34" target="7JuH_4QJl-1phAhiYr7i-43">
          <mxGeometry width="50" height="50" relative="1" as="geometry">
            <mxPoint x="420" y="510" as="sourcePoint" />
            <mxPoint x="470" y="460" as="targetPoint" />
          </mxGeometry>
        </mxCell>
        <mxCell id="7JuH_4QJl-1phAhiYr7i-51" value="" style="rounded=0;whiteSpace=wrap;html=1;" vertex="1" parent="1">
          <mxGeometry x="245" y="800" width="230" height="180" as="geometry" />
        </mxCell>
        <mxCell id="7JuH_4QJl-1phAhiYr7i-52" value="Logging" style="rounded=0;whiteSpace=wrap;html=1;" vertex="1" parent="1">
          <mxGeometry x="270" y="890" width="70" height="40" as="geometry" />
        </mxCell>
        <mxCell id="7JuH_4QJl-1phAhiYr7i-53" value="Metrics" style="rounded=0;whiteSpace=wrap;html=1;" vertex="1" parent="1">
          <mxGeometry x="370" y="890" width="70" height="40" as="geometry" />
        </mxCell>
        <mxCell id="7JuH_4QJl-1phAhiYr7i-54" value="Monitoring" style="rounded=0;whiteSpace=wrap;html=1;" vertex="1" parent="1">
          <mxGeometry x="270" y="820" width="70" height="40" as="geometry" />
        </mxCell>
        <mxCell id="7JuH_4QJl-1phAhiYr7i-55" value="Automation" style="rounded=0;whiteSpace=wrap;html=1;" vertex="1" parent="1">
          <mxGeometry x="370" y="820" width="70" height="40" as="geometry" />
        </mxCell>
        <mxCell id="7JuH_4QJl-1phAhiYr7i-57" value="" style="endArrow=classic;html=1;rounded=0;exitX=0.5;exitY=0;exitDx=0;exitDy=0;" edge="1" parent="1" source="7JuH_4QJl-1phAhiYr7i-51" target="7JuH_4QJl-1phAhiYr7i-14">
          <mxGeometry width="50" height="50" relative="1" as="geometry">
            <mxPoint x="420" y="680" as="sourcePoint" />
            <mxPoint x="470" y="630" as="targetPoint" />
          </mxGeometry>
        </mxCell>
      </root>
    </mxGraphModel>
  </diagram>
</mxfile>
